# xmcd
# 
# Track frame offsets:
#     150
#     15304
#     31336
#     56063
#     75680
#     96987
#     125523
#     143218
#     166480
#     178739
#     195343
#     211248
#     226413
#     254593
#     311182
# 
# Disc length: 4455
# 
# Revision: 2
# Processed by: cddbd v1.5.2PL0 Copyright (c) Steve Scherf et al.
# Submitted via: fre:ac v1.0.31
# 
DISCID=cf11650f
DTITLE=North Mississippi Allstars - 'Do It Like We Used To":  Disc 1
DYEAR=2009
DGENRE=Rock/Pop
TTITLE0=Someday Baby
TTITLE1=I'm in Jail
TTITLE2=18 Hammers
TTITLE3=Freedom Highway
TTITLE4=Shimmy Duo
TTITLE5=Goin' Down South
TTITLE6=61 Highway
TTITLE7=Hey Hey Baby
TTITLE8=R.L.'s Endless Boogie
TTITLE9=Crazy 'Bout U
TTITLE10=Up Over Yonder
TTITLE11=Sugartown
TTITLE12=Be So Glad
TTITLE13=Po Black Maddie - Skinny Woman
TTITLE14=Jumper on the Line
EXTD=YEAR: 2009
EXTT0=
EXTT1=
EXTT2=
EXTT3=
EXTT4=
EXTT5=
EXTT6=
EXTT7=
EXTT8=
EXTT9=
EXTT10=
EXTT11=
EXTT12=
EXTT13=
EXTT14=
PLAYORDER=
